<?xml version="1.0" standalone="no"?>
<!DOCTYPE svg PUBLIC "-//W3C//DTD SVG 20010904//EN"
 "http://www.w3.org/TR/2001/REC-SVG-20010904/DTD/svg10.dtd">
<svg version="1.0" xmlns="http://www.w3.org/2000/svg"
 width="1936.000000pt" height="818.000000pt" viewBox="0 0 1936.000000 818.000000"
 preserveAspectRatio="xMidYMid meet">

<g transform="translate(0.000000,818.000000) scale(0.100000,-0.100000)"
fill="#000000" stroke="none">
<path d="M9340 8170 c-523 -24 -1005 -82 -1410 -171 -513 -113 -812 -234
-1055 -427 -188 -149 -359 -331 -473 -502 -50 -76 -201 -328 -269 -450 -14
-25 -31 -52 -38 -60 -7 -8 -54 -87 -105 -175 -153 -266 -212 -342 -280 -364
-63 -20 -327 -41 -635 -51 -450 -14 -843 -41 -1040 -70 -321 -47 -470 -77
-831 -165 -745 -181 -1175 -362 -1799 -758 -181 -114 -186 -118 -289 -217
-235 -226 -453 -570 -699 -1099 -132 -283 -180 -401 -271 -670 l-66 -193 -41
-316 c-37 -287 -40 -322 -30 -396 12 -86 47 -159 106 -218 98 -99 276 -158
609 -203 129 -17 136 -19 136 -40 0 -8 27 -107 61 -222 88 -303 153 -427 358
-686 108 -136 187 -206 354 -310 295 -183 576 -286 874 -318 192 -21 543 7
750 60 194 50 329 105 489 201 133 80 196 131 334 269 221 222 351 436 455
746 47 140 69 255 61 324 l-6 56 60 64 c34 35 62 62 64 60 1 -2 13 -19 25 -37
37 -53 145 -128 234 -162 115 -44 274 -70 432 -70 165 1 376 22 485 50 68 17
481 146 537 167 7 3 16 -3 20 -13 13 -32 125 -130 178 -157 186 -93 676 -157
1035 -137 163 10 180 13 345 57 145 39 252 85 325 138 26 19 51 35 55 35 4 0
20 -13 35 -28 15 -16 60 -50 101 -75 145 -90 360 -121 639 -93 238 25 413 88
548 196 l60 48 27 -28 c105 -110 399 -179 895 -211 328 -21 550 6 835 101 204
68 260 97 383 194 91 73 337 335 443 471 l61 80 -5 -40 c-3 -24 6 -89 20 -160
42 -200 133 -346 281 -454 49 -36 62 -51 67 -80 51 -285 117 -515 187 -656 77
-152 230 -365 355 -491 173 -176 523 -367 828 -452 175 -49 233 -57 455 -57
560 0 945 127 1310 433 149 125 345 369 420 522 22 47 45 93 51 103 25 46 108
282 124 353 10 43 19 84 20 90 2 6 27 14 57 18 82 11 315 74 392 107 37 16 97
49 133 74 l64 45 57 -51 c153 -136 350 -177 767 -159 342 15 516 56 767 180
188 93 253 134 321 199 212 204 310 512 252 791 -25 124 -97 253 -194 351 -97
98 -173 146 -308 197 -130 48 -231 65 -370 60 l-103 -3 -11 30 c-26 66 -145
296 -207 400 -159 268 -465 715 -653 955 -246 313 -295 368 -678 753 -400 403
-685 663 -1061 966 -204 165 -384 310 -535 433 -153 124 -234 178 -491 326
-590 341 -1159 575 -1719 706 -562 132 -1268 224 -2071 272 -305 18 -1312 27
-1594 14z m1530 -184 c769 -43 1460 -129 2010 -252 243 -55 369 -90 627 -179
351 -119 748 -305 1145 -536 243 -141 312 -187 473 -318 72 -58 177 -143 235
-190 58 -47 188 -152 290 -235 401 -324 623 -526 1018 -925 537 -543 698 -740
1097 -1341 292 -440 393 -629 524 -985 29 -77 67 -180 85 -229 18 -50 37 -91
43 -93 15 -5 150 129 206 205 58 79 62 115 16 166 -17 19 -46 41 -64 47 -19 7
-32 16 -30 19 8 13 131 -10 218 -41 322 -115 480 -405 393 -720 -45 -164 -141
-309 -256 -386 -36 -24 -119 -71 -185 -105 -260 -132 -462 -176 -820 -179
-308 -2 -419 20 -535 108 -92 69 -140 147 -183 298 -22 77 -27 125 -37 325
-12 273 -31 380 -84 474 -84 150 -244 250 -448 280 -89 13 -91 13 -139 -11
-66 -33 -73 -49 -66 -152 12 -194 109 -364 324 -571 54 -52 156 -151 227 -220
166 -161 188 -206 147 -296 -38 -84 -161 -153 -373 -209 -182 -49 -290 -59
-563 -52 -240 6 -368 20 -558 61 -258 56 -335 115 -338 259 -1 63 -1 65 77
192 160 264 192 415 250 1185 35 477 40 629 21 685 -18 51 -95 131 -216 224
-166 127 -161 122 -161 170 0 82 98 186 235 250 125 59 304 95 665 135 451 50
478 51 585 28 50 -11 121 -32 160 -46 38 -14 71 -24 73 -22 1 2 -48 61 -110
132 -62 71 -167 192 -233 268 -173 202 -505 532 -690 687 -338 283 -573 477
-655 541 -47 37 -159 126 -249 197 -91 72 -166 129 -168 127 -2 -2 10 -24 27
-48 42 -59 50 -117 21 -156 -31 -44 -65 -47 -176 -17 -103 28 -121 27 -171
-11 -24 -17 -34 -35 -41 -73 -6 -28 -8 -51 -6 -51 2 0 26 11 53 25 70 36 118
33 157 -7 17 -18 36 -43 42 -55 15 -29 15 -344 0 -376 -22 -49 -57 -54 -181
-31 l-38 7 0 -156 c0 -193 -10 -182 175 -181 l130 1 145 52 c214 78 283 74
333 -20 15 -28 18 -49 13 -124 -6 -106 -45 -257 -83 -323 -64 -110 -224 -233
-357 -273 -105 -32 -425 -19 -534 21 -119 45 -147 65 -189 137 -86 146 -84
215 21 675 39 168 46 283 26 403 -6 33 -21 186 -35 340 -13 154 -28 294 -33
311 -6 17 -26 52 -46 78 -26 34 -36 58 -36 84 0 43 34 97 73 113 15 6 27 14
27 18 0 8 -497 235 -660 302 -122 49 -385 140 -445 153 l-31 7 4 -93 c3 -75
-1 -113 -22 -198 -26 -103 -26 -111 -26 -473 0 -578 26 -898 81 -1014 39 -81
59 -92 170 -89 65 1 93 6 115 21 38 24 41 29 128 176 42 70 97 151 125 180
l49 54 75 -1 c61 0 81 -4 109 -23 98 -68 113 -160 83 -524 -23 -285 -34 -383
-46 -431 -14 -58 -67 -119 -121 -141 -51 -21 -266 -34 -613 -37 -255 -2 -317
7 -423 61 -72 37 -94 57 -149 143 -96 149 -125 316 -83 483 23 93 70 217 123
320 28 56 30 69 35 200 5 175 -11 444 -39 640 -20 144 -23 154 -75 253 -62
118 -79 172 -93 297 -16 132 -13 173 14 239 13 33 23 62 21 64 -3 3 -211 42
-224 42 -2 0 -1 -8 2 -17 16 -41 36 -247 36 -369 0 -200 -45 -491 -88 -570
-31 -57 -121 -114 -180 -114 -41 0 -107 52 -128 103 -30 74 -34 133 -17 314
17 181 13 234 -12 213 -38 -32 -105 -142 -114 -187 -29 -147 -17 -367 33 -620
26 -128 165 -609 218 -753 33 -90 67 -150 152 -271 65 -92 96 -171 96 -242 0
-127 -47 -186 -185 -237 -84 -30 -101 -33 -260 -39 -317 -12 -565 44 -642 145
-23 31 -28 49 -31 108 -4 70 -2 74 62 216 36 79 82 195 102 258 32 104 36 131
44 291 22 428 -2 865 -60 1076 -24 86 -63 185 -74 185 -24 0 -75 -59 -86 -99
-6 -22 -15 -109 -20 -193 -11 -175 -19 -209 -60 -267 -30 -41 -47 -48 -110
-42 -33 3 -88 56 -111 106 -34 77 -52 333 -45 658 5 264 8 292 27 338 12 27
37 63 56 79 l34 30 -28 0 c-15 0 -125 7 -243 15 -118 8 -297 15 -397 15 l-181
0 14 -32 c18 -38 17 -38 68 -114 61 -92 90 -162 94 -232 10 -148 -70 -189
-229 -116 -35 16 -74 28 -87 26 -12 -2 -42 -24 -66 -49 -40 -41 -45 -52 -51
-110 -4 -36 -4 -67 -1 -70 2 -3 32 11 64 31 90 55 128 46 179 -41 21 -36 27
-62 31 -124 6 -99 -2 -141 -34 -179 -29 -34 -64 -39 -117 -17 -18 8 -44 17
-59 21 l-28 6 0 -64 c0 -64 0 -64 37 -81 50 -24 148 -30 230 -15 59 12 347
134 377 161 6 5 29 9 53 9 56 0 101 -39 128 -111 36 -100 21 -319 -50 -729
-13 -74 -33 -236 -44 -360 -12 -124 -28 -254 -37 -290 -26 -101 -79 -203 -140
-269 -129 -140 -248 -175 -494 -146 -163 19 -209 30 -282 66 -107 54 -162 123
-202 259 -57 192 -53 294 34 810 l62 365 -6 175 c-3 96 -12 218 -20 270 -9 52
-16 152 -16 221 0 111 -4 139 -31 234 -17 60 -42 125 -56 146 -50 75 -70 233
-37 285 9 13 15 27 12 29 -2 2 -82 7 -178 11 -125 4 -231 1 -369 -10 -107 -9
-196 -18 -198 -20 -2 -1 12 -19 30 -39 45 -47 114 -189 128 -260 7 -43 7 -68
-2 -95 -29 -91 -87 -105 -205 -48 -55 26 -75 31 -94 24 -36 -13 -78 -57 -89
-92 -13 -42 -24 -136 -17 -136 4 0 29 16 57 35 58 40 95 44 131 15 41 -32 60
-93 65 -210 4 -94 2 -109 -16 -138 -32 -50 -61 -56 -131 -27 -33 14 -62 25
-65 25 -3 0 -5 -29 -5 -65 0 -63 1 -65 32 -81 96 -50 254 -19 467 92 162 84
201 84 256 -3 27 -43 29 -55 33 -165 5 -123 -13 -292 -63 -613 -13 -82 -33
-251 -45 -375 -12 -124 -30 -258 -41 -299 -60 -223 -196 -362 -383 -391 -114
-18 -363 18 -456 65 -61 31 -137 99 -159 144 -38 75 -81 269 -81 367 0 56 43
386 89 679 40 256 47 422 27 600 -8 77 -20 219 -26 315 -10 169 -12 177 -45
245 -55 112 -80 249 -54 297 6 11 9 21 7 23 -13 11 -498 -129 -498 -144 0 -4
23 -13 52 -21 79 -20 135 -48 173 -86 33 -32 35 -39 35 -99 0 -111 -31 -226
-112 -419 -32 -76 -60 -122 -119 -195 l-77 -95 52 -17 c129 -39 202 -129 257
-312 26 -85 30 -257 10 -352 -39 -178 -211 -542 -344 -730 -68 -95 -80 -106
-172 -156 -105 -58 -141 -69 -255 -76 -93 -5 -100 -4 -350 62 -263 69 -309 86
-347 127 -58 62 -57 129 6 316 43 127 61 209 130 592 45 245 85 461 91 480 5
19 10 39 10 45 0 10 -69 -100 -225 -360 -191 -318 -259 -407 -364 -474 -92
-59 -266 -84 -711 -101 -609 -22 -760 -31 -1005 -60 -636 -76 -1443 -285
-1885 -491 -142 -66 -395 -196 -450 -232 l-45 -29 45 7 c25 4 98 9 163 10 83
3 135 9 180 24 34 11 202 65 372 121 463 151 587 182 960 240 411 63 647 85
1125 104 677 27 1159 31 1138 10 -14 -13 -698 -57 -740 -46 -16 4 -755 -29
-863 -39 -455 -40 -921 -115 -1230 -199 -141 -39 -704 -223 -705 -231 0 -4 39
-14 88 -23 202 -38 331 -115 387 -229 22 -45 25 -67 27 -157 1 -80 -3 -118
-17 -160 -39 -114 -173 -287 -305 -390 -38 -30 -69 -57 -70 -60 0 -3 37 -13
82 -22 190 -37 338 -126 435 -263 54 -77 110 -214 124 -307 41 -263 -53 -505
-362 -926 -238 -324 -329 -415 -487 -488 -112 -52 -158 -66 -327 -99 -220 -42
-328 -37 -728 34 -183 33 -372 64 -422 71 -170 21 -341 72 -402 120 -16 12
-40 40 -55 62 -25 36 -28 51 -28 117 0 42 16 195 34 341 34 260 36 268 99 455
100 293 161 438 336 800 189 389 380 680 578 881 70 71 121 110 251 192 630
397 1030 568 1734 742 663 163 997 206 1808 235 457 16 674 35 757 67 109 40
193 138 335 388 39 69 92 159 118 200 26 41 80 131 120 200 209 358 294 474
466 640 307 297 571 416 1226 554 396 84 896 139 1418 156 337 12 1077 4 1410
-14z m2983 -3007 c135 -19 246 -75 345 -172 99 -97 152 -186 152 -255 0 -43
-5 -57 -30 -86 -34 -38 -102 -66 -163 -66 -21 0 -131 18 -245 41 -236 47 -234
47 -359 -25 l-72 -41 -20 -85 c-11 -47 -18 -87 -16 -89 2 -2 59 18 127 44 114
44 128 47 193 43 79 -5 135 -29 185 -79 35 -35 45 -56 65 -139 27 -106 -21
-214 -106 -239 -57 -17 -164 -16 -216 3 -24 8 -69 18 -102 22 -58 6 -60 6 -66
-18 -3 -13 -5 -47 -3 -74 l3 -49 100 -23 c90 -21 117 -23 280 -18 217 6 399
38 679 120 100 30 222 61 272 69 200 35 348 -28 388 -162 20 -68 21 -190 2
-296 -18 -96 -87 -355 -148 -555 -49 -157 -79 -305 -102 -496 -16 -134 -40
-194 -121 -309 -159 -225 -513 -365 -917 -365 -468 1 -856 58 -1064 156 -157
75 -256 203 -295 383 -24 110 -24 133 6 298 25 133 44 207 135 503 109 360
113 376 117 520 5 141 4 150 -52 385 -18 75 -29 158 -34 260 -6 101 -14 163
-25 190 -10 24 -49 70 -96 115 -92 88 -110 127 -90 200 22 82 97 136 255 185
71 22 573 96 730 108 111 8 240 6 308 -4z m-5668 -89 c295 -19 505 -92 586
-203 63 -86 73 -115 73 -212 0 -106 -30 -205 -89 -291 -46 -67 -241 -259 -325
-320 -36 -26 -77 -57 -92 -70 l-28 -22 64 -22 c90 -30 208 -110 304 -208 136
-138 185 -222 291 -494 76 -197 102 -242 155 -273 101 -59 226 -9 229 91 1 47
-28 84 -93 116 l-55 27 35 1 c123 0 321 -85 423 -183 216 -207 236 -549 48
-825 -140 -206 -374 -295 -767 -293 -155 1 -246 23 -337 79 -178 110 -238 275
-252 702 -10 296 -35 389 -135 507 -91 108 -209 170 -375 197 -74 13 -83 12
-117 -5 -20 -10 -46 -30 -57 -45 -61 -77 18 -354 150 -526 20 -25 136 -150
259 -277 123 -127 228 -238 233 -248 57 -101 1 -207 -151 -286 -84 -45 -278
-100 -407 -118 -133 -17 -503 -6 -680 21 -255 39 -393 85 -453 155 -38 43 -47
71 -47 150 0 57 4 67 76 190 90 153 134 284 174 515 37 218 101 1140 88 1272
-13 128 -28 149 -209 290 -160 125 -174 144 -155 211 17 58 149 188 226 223
108 50 313 91 635 130 258 30 361 39 610 52 14 1 88 -3 165 -8z m-3175 -30
c71 -18 83 -25 147 -84 66 -60 57 -134 -26 -233 -56 -66 -60 -73 -62 -129 -6
-129 55 -392 138 -594 124 -301 482 -957 580 -1064 129 -141 171 -183 188
-190 10 -3 71 -11 136 -16 133 -11 196 -31 288 -90 110 -71 153 -158 131 -265
-27 -138 -67 -186 -185 -224 -497 -160 -519 -166 -709 -185 -196 -21 -310 -20
-437 3 -200 36 -311 105 -372 231 -43 89 -47 188 -11 320 28 102 29 111 26
305 -2 109 -4 201 -6 202 -7 7 -336 -40 -371 -53 -70 -25 -68 -17 -40 -164 23
-124 29 -138 76 -213 65 -100 104 -188 113 -250 15 -99 -43 -216 -142 -285
-77 -54 -166 -86 -342 -125 l-145 -31 -320 1 c-176 0 -372 6 -435 12 -218 23
-423 92 -467 157 -24 37 -27 88 -8 145 16 48 40 76 209 249 106 107 234 248
285 313 91 115 95 123 193 355 162 382 229 580 288 849 65 297 64 514 -5 668
-42 95 -49 131 -35 175 22 65 91 121 187 150 68 20 101 24 268 26 138 1 226 8
320 23 274 45 403 47 545 11z m6790 -10 c318 -59 473 -190 473 -399 -1 -83
-36 -187 -91 -269 -49 -71 -167 -183 -285 -270 -48 -35 -87 -66 -85 -67 2 -2
49 -10 106 -20 117 -19 279 -78 350 -127 127 -86 234 -245 278 -411 22 -79 24
-104 18 -177 -7 -91 -41 -215 -80 -292 -143 -282 -599 -806 -805 -925 -57 -33
-397 -140 -484 -153 -170 -24 -321 -29 -528 -15 -249 17 -412 38 -541 71 -187
47 -254 100 -276 215 -12 61 2 106 52 176 19 26 55 93 80 148 124 270 165 510
214 1245 29 428 28 453 -21 530 -29 45 -44 58 -198 170 -70 51 -134 102 -142
114 -22 31 -18 77 11 121 63 94 124 141 251 189 151 58 300 85 703 126 356 37
389 39 655 36 163 -2 307 -9 345 -16z m-9107 -2930 c32 -112 119 -175 292
-211 173 -35 350 -49 618 -49 238 0 257 -1 257 -17 0 -57 -79 -227 -159 -347
-148 -222 -436 -405 -726 -463 -108 -21 -363 -21 -465 1 -234 51 -422 147
-573 295 -132 128 -236 288 -286 441 -12 35 -21 67 -21 70 0 14 54 29 142 40
200 25 340 79 593 228 60 35 85 43 170 55 153 22 139 26 158 -43z m12452 40
c24 -11 71 -53 109 -95 40 -45 92 -89 129 -111 73 -43 206 -79 343 -93 53 -6
98 -12 101 -15 18 -17 -99 -287 -168 -390 -197 -290 -521 -478 -893 -517 -152
-16 -357 10 -526 68 -271 92 -522 310 -643 558 -53 106 -89 204 -81 217 7 11
35 9 242 -13 97 -10 137 -10 285 5 313 32 567 115 707 230 209 171 294 205
395 156z m-13955 -251 c10 -14 59 -162 105 -314 76 -249 249 -492 482 -677 94
-75 283 -184 363 -209 160 -49 208 -63 290 -80 132 -28 260 -34 430 -20 128
11 305 42 395 69 119 37 315 132 410 200 122 86 264 233 352 362 95 140 191
351 254 559 33 109 41 121 79 121 72 0 86 -30 64 -138 -42 -211 -164 -482
-294 -655 -88 -119 -220 -256 -317 -330 -83 -63 -252 -163 -338 -199 -102 -42
-284 -93 -410 -114 -157 -27 -562 -27 -685 -1 -196 42 -399 125 -610 249 -173
103 -239 158 -350 298 -164 207 -240 344 -295 531 -20 68 -48 162 -62 208 -29
96 -25 118 28 145 36 18 97 15 109 -5z m11920 -17 c10 -11 20 -45 24 -74 10
-77 44 -238 58 -273 19 -49 96 -182 183 -315 96 -147 261 -326 394 -425 174
-131 422 -235 648 -271 187 -29 499 -9 716 47 322 84 617 292 806 569 103 150
206 373 266 575 15 50 32 96 37 103 13 15 49 16 83 0 23 -10 25 -17 25 -71 0
-73 -17 -140 -73 -287 -102 -267 -209 -433 -400 -624 -167 -166 -374 -296
-597 -374 -135 -47 -347 -83 -580 -97 -354 -23 -721 85 -1070 313 -125 81
-187 136 -273 240 -195 236 -285 409 -351 680 -52 211 -62 278 -45 298 20 25
126 15 149 -14z"/>
<path d="M6970 7018 c-38 -20 -48 -31 -62 -73 -33 -96 -19 -283 23 -321 19
-17 21 -16 58 20 42 41 99 149 126 237 19 62 15 118 -11 144 -22 22 -83 19
-134 -7z"/>
<path d="M7030 6200 c-23 -43 -34 -177 -22 -275 14 -109 25 -139 58 -154 22
-10 27 -6 63 42 55 74 69 105 76 174 6 49 4 68 -13 104 -26 55 -38 69 -87 102
-47 32 -61 33 -75 7z"/>
<path d="M16355 4383 c-11 -2 -55 -16 -97 -29 -130 -42 -166 -110 -155 -289 8
-140 66 -245 134 -245 31 0 97 34 151 78 119 98 231 290 218 377 -7 46 -42 86
-89 104 -28 11 -122 13 -162 4z"/>
<path d="M1570 4361 c-100 -26 -122 -40 -154 -100 -54 -101 -45 -289 18 -390
57 -89 141 -54 277 117 69 88 123 215 116 274 -14 105 -103 140 -257 99z"/>
<path d="M17450 4083 c-28 -54 -61 -106 -73 -116 -12 -10 -82 -58 -155 -106
l-132 -87 57 -18 c117 -37 260 -133 369 -247 103 -109 162 -210 274 -474 40
-93 88 -191 106 -216 88 -120 251 -203 364 -184 l39 7 -34 97 c-73 210 -165
450 -202 531 -89 191 -295 534 -481 800 -41 58 -75 106 -77 108 -1 2 -26 -41
-55 -95z"/>
<path d="M1694 3303 c-6 -4 -19 -37 -29 -73 -26 -92 -25 -232 4 -330 39 -133
48 -147 102 -165 58 -20 59 -19 161 81 54 53 70 75 81 117 22 79 26 129 14
164 -18 48 -112 140 -178 174 -61 30 -136 46 -155 32z"/>
<path d="M7565 4369 c-38 -11 -80 -22 -93 -26 -69 -18 -118 -162 -103 -304 12
-118 72 -219 128 -219 40 0 101 38 167 103 78 79 115 133 155 226 50 118 38
179 -42 219 -55 27 -117 28 -212 1z"/>
<path d="M4453 4003 c-59 -183 -92 -412 -93 -636 l0 -128 38 -16 c53 -22 158
-28 207 -10 29 10 50 28 78 67 60 86 65 114 38 228 -36 149 -96 323 -155 446
-80 167 -76 165 -113 49z"/>
<path d="M10935 4364 c-168 -33 -215 -73 -235 -198 -26 -166 46 -346 138 -346
81 0 275 177 336 307 48 100 49 150 4 199 -50 54 -113 64 -243 38z"/>
<path d="M11059 3304 c-9 -3 -25 -34 -37 -73 -41 -126 -26 -262 45 -423 24
-55 28 -59 79 -75 l54 -17 69 48 c119 81 163 142 177 243 9 70 -7 110 -69 171
-82 81 -248 147 -318 126z"/>
</g>
</svg>
